<svg width="16" height="16" viewBox="0 0 16 16" fill="none" xmlns="http://www.w3.org/2000/svg">
<path d="M6.5 2C6.5 1.45 6.05 1 5.5 1C4.95 1 4.5 1.45 4.5 2C4.5 2.4 4.015 2.6 3.73 2.32L3.705 2.295C3.315 1.905 2.68 1.905 2.29 2.295C1.9 2.685 1.9 3.32 2.29 3.71L2.315 3.735C2.6 4.015 2.4 4.5 2 4.5C1.45 4.5 1 4.95 1 5.5C1 6.05 1.45 6.5 2 6.5H6.5V2Z" fill="#F8312F"/>
<path d="M9.50006 12.244C9.01822 12.4139 8.51097 12.5004 8.00006 12.5C7.58806 12.5 7.18956 12.445 6.81006 12.341C7.2561 12.4624 7.71819 12.5143 8.18006 12.495C7.88851 11.9195 7.7774 11.2695 7.86126 10.6299C7.94511 9.99026 8.22003 9.39083 8.65006 8.90998C9.12081 8.38142 9.75306 8.02326 10.4484 7.89124C11.1438 7.75922 11.8633 7.86073 12.4951 8.17998C12.4979 8.12002 12.4996 8.06001 12.5001 7.99998C12.5001 8.52598 12.4101 9.03098 12.2441 9.49998L12.1141 9.60498H11.2511C10.2861 9.60498 9.61706 10.277 9.61706 11.242V12.12L9.50006 12.244Z" fill="#FCD53F"/>
<path d="M12.33 6.76999C11.9133 6.64414 11.4804 6.58013 11.045 6.57999C9.77505 6.57999 8.56005 7.12499 7.71505 8.07499C7.31823 8.52061 7.01399 9.04069 6.82005 9.60499C6.63324 10.1495 6.55509 10.7254 6.59005 11.3C6.61005 11.65 6.67005 11.995 6.77005 12.33C6.35635 12.2122 5.96166 12.0358 5.59805 11.806C5.58705 11.782 5.53305 11.745 5.52305 11.721C4.80405 10.0955 5.02455 8.09699 6.28005 6.68399C7.20005 5.64899 8.54755 5.09199 9.83255 5.09199C10.4865 5.09199 11.0855 5.23449 11.694 5.51099C11.714 5.51999 11.7855 5.59599 11.805 5.60499C11.585 5.25499 11.31 4.92999 10.99 4.63999C10.6325 4.32004 10.2256 4.06002 9.78505 3.86999C9.74805 3.86999 9.73005 3.89999 9.69355 3.90099C8.87915 3.91799 8.0771 4.10345 7.33791 4.44568C6.59872 4.78791 5.9384 5.2795 5.39855 5.88949C4.86847 6.48502 4.46239 7.18023 4.20405 7.93449C4.01055 8.50549 3.92905 9.07949 3.91355 9.68249C3.91255 9.71649 3.86555 9.74449 3.86505 9.77849C3.62513 9.21359 3.50329 8.60559 3.50704 7.99187C3.51079 7.37815 3.64004 6.77169 3.88684 6.20976C4.13364 5.64784 4.49277 5.14234 4.94216 4.72435C5.39155 4.30636 5.92169 3.98471 6.49998 3.77918C7.07828 3.57365 7.6925 3.48859 8.30489 3.52922C8.91727 3.56985 9.51487 3.73533 10.0609 4.01546C10.607 4.29559 11.09 4.68446 11.4802 5.15817C11.8705 5.63187 12.1597 6.18039 12.33 6.76999Z" fill="#FCD53F"/>
<path d="M6.34499 6.73C6.78193 6.23722 7.31856 5.84287 7.91935 5.57308C8.52015 5.30328 9.1714 5.16418 9.82999 5.165C10.505 5.165 11.18 5.31 11.805 5.605C11.585 5.255 11.31 4.93 10.99 4.64C10.6325 4.32005 10.2255 4.06002 9.78499 3.87C8.96999 3.875 8.17999 4.045 7.42999 4.37C6.63999 4.715 5.94999 5.22 5.37499 5.865C4.83999 6.465 4.43999 7.155 4.17999 7.91C3.97499 8.515 3.86999 9.145 3.86499 9.785C4.11499 10.37 4.49499 10.91 5.00499 11.36C5.19499 11.53 5.39499 11.68 5.59999 11.81C4.83999 10.17 5.06999 8.165 6.34499 6.73ZM9.49999 14C9.49999 14.55 9.94999 15 10.5 15C11.05 15 11.5 14.55 11.5 14C11.5 13.6 11.985 13.4 12.27 13.68L12.295 13.705C12.685 14.095 13.32 14.095 13.71 13.705C14.1 13.315 14.1 12.68 13.71 12.29L13.685 12.265C13.4 11.985 13.6 11.5 14 11.5C14.55 11.5 15 11.05 15 10.5C15 9.95 14.55 9.5 14 9.5H11.25C10.285 9.5 9.49999 10.285 9.49999 11.25V14Z" fill="#F8312F"/>
<path d="M8.66504 8.9175C7.76004 9.9325 7.60004 11.35 8.18004 12.495C7.71004 12.515 7.23504 12.46 6.77004 12.33C6.67004 11.995 6.57504 11.6455 6.55504 11.2955C6.52004 10.7155 6.61704 10.1095 6.80204 9.5645C6.99704 8.9995 7.29604 8.5145 7.69604 8.0645C8.11745 7.59239 8.63331 7.21404 9.21021 6.95392C9.78712 6.6938 10.4122 6.55773 11.045 6.5545C11.485 6.5545 11.915 6.645 12.33 6.77C12.46 7.23 12.515 7.705 12.495 8.18C12.04 7.95 11.54 7.8525 11.045 7.8525C10.165 7.8525 9.30004 8.2075 8.66504 8.9175Z" fill="#F8312F"/>
</svg>
